<?xml version="1.0" encoding="UTF-8" standalone="no"?>
<svg width="122" height="33" viewBox="0 0 122 33" fill="none" xmlns="http://www.w3.org/2000/svg"><path d="M45.573 11.641a2.75 2.75 0 0 1-2.747 2.747h-6.678V6.463h6.678a2.75 2.75 0 0 1 2.747 2.747v2.431Zm-2.747-8.354H33.3a.438.438 0 0 0-.438.438v21.141c0 .242.196.438.438.438h2.41a.438.438 0 0 0 .438-.438v-7.301h6.678a5.924 5.924 0 0 0 5.923-5.924v-2.43a5.924 5.924 0 0 0-5.923-5.924ZM69.84 25.304h-2.3a.438.438 0 0 1-.439-.438v-8.81a6.526 6.526 0 0 1 6.526-6.526h.62c.243 0 .439.196.439.438v2.3a.438.438 0 0 1-.438.438h-.62a3.35 3.35 0 0 0-3.35 3.35v8.81a.438.438 0 0 1-.438.438Zm21.197-.001h-2.3a.438.438 0 0 1-.438-.438V10.302c0-.242.196-.438.437-.438h2.3c.243 0 .44.196.44.438v14.563a.438.438 0 0 1-.44.439ZM58.943 9.529c-2.05 0-3.87.624-4.86 1.992V3.724a.438.438 0 0 0-.437-.438h-2.3a.438.438 0 0 0-.439.438v21.141c0 .242.196.438.438.438h2.3a.438.438 0 0 0 .439-.438v-7.709c0-2.728 1.747-4.537 4.08-4.537 2.096 0 3.7 1.287 3.7 3.852v8.394c0 .242.197.438.439.438h2.3a.438.438 0 0 0 .439-.438v-8.718c0-2.94-1.589-6.62-6.099-6.62Zm55.448 2.965c2.377 0 3.763 1.495 4.261 3.62h-8.739c.519-2.125 2.203-3.62 4.478-3.62Zm.172-2.965c-4.45 0-8.002 3.462-8.002 8.055s3.606 8.056 8.055 8.056c2.55 0 4.772-.974 6.295-2.552a.438.438 0 0 0-.009-.614l-1.493-1.473a.437.437 0 0 0-.598-.018 6.275 6.275 0 0 1-4.101 1.583 4.925 4.925 0 0 1-4.828-3.84h11.61a.44.44 0 0 0 .438-.41c.017-.241.025-.485.039-.732.254-4.446-2.958-8.055-7.406-8.055Z" fill="#101010"></path><path d="M83.42 22.463a4.879 4.879 0 1 1 0-9.758 4.879 4.879 0 0 1 0 9.758Zm0-12.934a8.055 8.055 0 1 0 0 16.11c4.157 0 7.617-3.606 7.617-8.055S87.578 9.53 83.42 9.53Zm19.661 3.911 1.487-1.492a.437.437 0 0 0-.027-.644c-.706-.588-2.471-1.775-5.21-1.775-3.642 0-5.555 2.358-5.555 4.581 0 5.33 8.195 4.2 8.195 6.706 0 1.45-1.449 1.948-2.73 1.948-1.703 0-3.113-1.2-3.707-1.795a.439.439 0 0 0-.624.002l-1.483 1.507a.437.437 0 0 0-.01.603c.69.747 2.688 2.559 5.827 2.559 3.954 0 5.96-2.42 5.96-4.908 0-5.31-8.207-4.149-8.207-6.656 0-.86.846-1.64 2.415-1.64 1.54 0 2.61.667 3.093 1.044a.435.435 0 0 0 .576-.04ZM15.664 0H1.815C.847 0 .063.785.063 1.753V23.55c0 .968.784 1.753 1.752 1.753h9.14v-3.287H3.348V3.287h12.315a2.958 2.958 0 0 1 2.958 2.957V19.06a2.958 2.958 0 0 1-2.958 2.957h-2.629a.438.438 0 0 0-.438.439v2.41c0 .242.196.438.438.438h2.63a6.244 6.244 0 0 0 6.243-6.244V6.244A6.244 6.244 0 0 0 15.664 0Z" fill="#101010"></path><path d="m8.134 31.755-6.763-5.19A3.505 3.505 0 0 1 0 23.786V1.755C0 .304 1.667-.518 2.82.366l6.763 5.19a3.505 3.505 0 0 1 1.371 2.78v22.03c0 1.453-1.667 2.275-2.82 1.39Z" fill="#03EAB3"></path></svg>
